# xmcd
#
# Track frame offsets:
#	150
#	15116
#	29523
#	43130
#	54522
#	68705
#	79685
#	93256
#	106381
#	120917
#	132898
#	145692
#	174586
#	191150
#	203088
#	215323
#	228338
#	241677
#
# Disc length: 3709
#
# Revision: 1
# Processed by: cddbd v1.5.1PL0 Copyright (c) Steve Scherf et al.
# Submitted via: CDex 1.50Beta6
# Normalized: r0:DSETVAR1,TDELIM( - )
#
DISCID=e50e7b12
DTITLE=Various Artist - simplyjazz Cd 02 Jazzin' The Blues
DYEAR=2004
DGENRE=Jazz
TTITLE0=Lester Young - Jump Lester Jump
TTITLE1=Jimmy Rushing - Jimmy's Round the Clock Blues
TTITLE2=Illinois Jacquet - Illinois Goes To Chicago
TTITLE3=Helen Humes - Airplane Blues
TTITLE4=Paul Williams - The Hucklebuck
TTITLE5=Tiny Bradshaw - Take The Hands Off The Clock
TTITLE6=Hal Singer - Cornbread
TTITLE7=Gatemouth Moore - I Ain't Mad At You, Pretty Baby
TTITLE8=Otis Spann - This Is The Blues
TTITLE9=Joe Williams - Everyday I Have The Blues
TTITLE10=Big Jay McNeely - The Deacon's Hop
TTITLE11=Joe Lee Wilson - Pink Champagne
TTITLE12=Jaki Byard - Pete And Thomas
TTITLE13=Harold Land - Swingin' On Savoy
TTITLE14=Doc Pomus - My Good Pott
TTITLE15=Pete Johnson - Atomic Boogie
TTITLE16=Tommy Brown - V8 Baby
TTITLE17=Jack McDuff - Walkin' The Dog
EXTD=YEAR: 2004
EXTT0=
EXTT1=
EXTT2=
EXTT3=
EXTT4=
EXTT5=
EXTT6=
EXTT7=
EXTT8=
EXTT9=
EXTT10=
EXTT11=
EXTT12=
EXTT13=
EXTT14=
EXTT15=
EXTT16=
EXTT17=
PLAYORDER=
